# xmcd
#
# Track frame offsets:
#	183
#	12768
#	25878
#	40053
#	51525
#	61758
#	74063
#	84918
#	95610
#	108068
#	119223
#	133688
#	146543
#	159560
#	173485
#	184828
#	200198
#	208923
#	219110
#	232225
#
# Disc length: 3259
#
# Revision: 3
# Processed by: cddbd v1.5.1PL0 Copyright (c) Steve Scherf et al.
# Submitted via: audiograbber 1.82.00
# Normalized: r2:DSETVAR2
#
DISCID=280cb914
DTITLE=Various Artist - Blues Gems - Vol. 1
DYEAR=1989
DGENRE=Blues
TTITLE0=Muddy Waters - I Just Wanna Make Love To You
TTITLE1=Elmore James - Dust My Broom
TTITLE2=Memphis Slim - Blue And Lonesome
TTITLE3=John Lee Hooker - Boom Boom
TTITLE4=Little Milton - Lonely No More
TTITLE5=Otis Spann - I'm Leaving You
TTITLE6=Little Walter - Just Your Fool
TTITLE7=B.b. King - Recession Blues
TTITLE8=John Brim - Ice Cream Man
TTITLE9=Johnny Shines - So Glad I Found You
TTITLE10=Buddy Guy - Broken Hearted Blues
TTITLE11=Doctor Ross - Come Back Baby, Come
TTITLE12=Howlin' Wolf - You Gonna Wreck My Life
TTITLE13=Jimmy Reed - You Don't Have To Go
TTITLE14=Arthur "Big" Crudup - Mean Old Frisco
TTITLE15=Floyd Jones - Dark Road
TTITLE16=Sonny Boy Williamson - Checkin' Up On My Baby
TTITLE17=Magic Sam - All My Whole Life
TTITLE18=Junior Parker - Feelin' Good
TTITLE19=Bo Diddley - I'm A Man
EXTD=Green Line - CD5VIN04
EXTT0=
EXTT1=
EXTT2=
EXTT3=
EXTT4=
EXTT5=
EXTT6=
EXTT7=
EXTT8=
EXTT9=
EXTT10=
EXTT11=
EXTT12=
EXTT13=
EXTT14=
EXTT15=
EXTT16=
EXTT17=
EXTT18=
EXTT19=
PLAYORDER=
